<svg xmlns="http://www.w3.org/2000/svg" width="82" height="82" fill-rule="nonzero"><circle cx="41" cy="41" r="41" fill="#fff"/><path d="M59.856 48.24a25.04 25.04 0 0 1-7.863-1.253c-1.253-.427-2.68-.096-3.496.737l-4.96 3.743c-5.75-3.07-9.293-6.61-12.32-12.318l3.633-4.83c.944-.943 1.282-2.32.877-3.612-.834-2.525-1.257-5.175-1.257-7.876 0-1.95-1.587-3.54-3.54-3.54h-8.1c-1.95 0-3.54 1.588-3.54 3.54 0 22.366 18.196 40.562 40.562 40.562 1.95 0 3.54-1.588 3.54-3.54V51.78c0-1.95-1.588-3.54-3.54-3.54z" fill="#343434"/><path d="M60.945 59.856a1.09 1.09 0 0 1-1.089 1.089c-21.016 0-38.112-17.097-38.112-38.112a1.09 1.09 0 0 1 1.089-1.089h8.1a1.09 1.09 0 0 1 1.089 1.089c0 2.963.465 5.87 1.376 8.627.127.407.024.828-.388 1.256l-4.21 5.577c-.282.374-.327.876-.115 1.293C32.12 46.34 36.296 50.518 43.1 54.004a1.22 1.22 0 0 0 1.297-.112L50.1 49.57a1.08 1.08 0 0 1 1.11-.258 27.51 27.51 0 0 0 8.645 1.381 1.09 1.09 0 0 1 1.089 1.089v8.076z" fill="#81c684"/><path d="M59.856 50.69a27.98 27.98 0 0 1-2.586-.132v1.594c0 2.934-2.57 5.2-5.484 4.865-7.848-.905-14.954-4.23-20.615-9.17 6.992 8.007 17.244 13.098 28.685 13.098a1.09 1.09 0 0 0 1.089-1.089V51.78a1.09 1.09 0 0 0-1.089-1.089z" fill="#d64928" opacity=".1"/></svg>