<?xml version="1.0" encoding="UTF-8"?>
<svg width="16px" height="19px" viewBox="0 0 16 19" version="1.1" xmlns="http://www.w3.org/2000/svg" xmlns:xlink="http://www.w3.org/1999/xlink">
    <!-- Generator: Sketch 63.1 (92452) - https://sketch.com -->
    <title>Grey</title>
    <desc>Created with Sketch.</desc>
    <g id="Page-1" stroke="none" stroke-width="1" fill="none" fill-rule="evenodd">
        <g id="DiscoveryNew" transform="translate(-295.000000, -2451.000000)" fill="#4CAF50">
            <g id="cards/delivery/none-copy-3" transform="translate(20.000000, 2194.000000)">
                <g id="footer" transform="translate(0.000000, 227.000000)">
                    <g id="icons/info/credit-card-copy" transform="translate(271.000000, 27.000000)">
                        <path d="M17.6698967,8 L17.7151047,8.00978793 C17.836475,8.06068515 17.7503412,8.24861338 17.6524619,8.33866232 L17.6524619,8.33866232 L15.0880248,10.7347471 C14.9470786,10.8639478 14.8100476,11.1027732 14.9627393,11.2163132 C15.0801944,11.302447 15.2446316,11.2045677 15.3542564,11.1066884 C16.2508306,10.3275693 17.1474049,9.54453507 18.0439791,8.76541599 C18.134028,8.69102773 18.2593135,8.60880914 18.3571928,8.67536705 C18.4863934,8.76541599 18.384599,8.96508972 18.2749742,9.07471452 C17.4841096,9.88907015 16.6971602,10.6995106 15.9062956,11.5138662 C15.824077,11.6 15.7379432,11.6900489 15.710537,11.8035889 C15.6831308,11.9171289 15.7418584,12.058075 15.8553983,12.0815661 C15.9571928,12.1011419 16.0511569,12.0228385 16.1255451,11.9484502 C16.9751373,11.1262643 17.8286447,10.3040783 18.6782368,9.48189233 C18.795692,9.36835237 19.0227719,9.27047308 19.093245,9.41924959 C19.1323967,9.50929853 19.0658388,9.61109299 18.9992809,9.68548124 C18.2162466,10.5898858 17.4292972,11.4942904 16.6462629,12.3986949 C16.5444685,12.5161501 16.4387589,12.6923328 16.5405533,12.8097879 C16.6580084,12.9507341 16.877258,12.8137031 17.0025435,12.6805873 C17.8012385,11.8270799 18.6038486,10.9696574 19.4025435,10.1122349 C19.4651863,10.0417618 19.5552352,9.96737357 19.6452841,9.99477977 C19.6726903,10.0026101 19.6922662,10.0182708 19.7079269,10.0378467 C19.7744848,10.1278956 19.711842,10.3079935 19.6217931,10.4137031 C18.9170623,11.3298532 18.2005859,12.2342577 17.4723641,13.130832 C17.0847621,13.612398 16.6775843,14.0978793 16.1372907,14.3993475 C15.596997,14.6969005 14.8844358,14.7712887 14.3793788,14.4150082 L14.3793788,14.4150082 L12.8093951,16.125938 L16.305643,19.3324633 C16.9281553,19.9079935 17.0886773,20.788907 16.6149416,21.2587276 C16.145121,21.7285481 15.2642075,21.5719413 14.6886773,20.9455139 L14.6886773,20.9455139 L11.5369644,17.5119086 C10.6090688,18.5220228 9.68508838,19.532137 8.75719278,20.5422512 C8.44006391,20.8867863 8.10335918,21.2469821 7.66094482,21.4153344 C6.68998234,21.7833605 5.90694808,20.8280587 6.34936244,19.919739 C6.52946032,19.5556281 6.83484368,19.2737357 7.1323967,18.9996737 C8.17774743,18.0404568 9.21918299,17.0812398 10.2645337,16.1220228 L10.2645337,16.1220228 L8.74936244,14.4698206 C7.86061856,15.0101142 6.78394645,14.9631321 5.68378332,13.862969 C4.32130371,12.5004894 3.436475,10.0339315 4.41526782,9.05513866 C5.39406064,8.08026101 7.86061856,8.96117455 9.23875885,10.3158238 C10.3428372,11.4159869 10.385904,12.4926591 9.84952557,13.3814029 L9.84952557,13.3814029 L11.5526251,14.9435563 C12.1438159,14.4032626 12.7350068,13.8590538 13.3261977,13.314845 C13.059966,12.9233279 13.0756267,12.3869494 13.2596398,11.9484502 C13.4397376,11.5099511 13.768612,11.1497553 14.1014016,10.8091354 C15.1310916,9.75986949 16.2860672,8.8319739 17.5350068,8.05285481 C17.5898192,8.01761827 17.6563771,7.98238173 17.7151047,8.00978793 Z M12.1582382,3.71060359 C13.1057096,2.76313214 14.6522023,2.76313214 15.5996737,3.71060359 C16.54323,4.65807504 16.54323,6.2045677 15.5996737,7.15203915 L15.5996737,7.15203915 L13.3758564,9.37585644 C12.9021207,9.84959217 12.2756933,10.0845024 11.6531811,10.0845024 C11.0267537,10.0845024 10.4042414,9.84959217 9.93050571,9.37585644 L9.93050571,9.37585644 L7.71060359,7.15595432 C6.76313214,6.20848287 6.76313214,4.66199021 7.71060359,3.71451876 C8.65807504,2.76704731 10.2045677,2.76704731 11.1520392,3.71451876 L11.1520392,3.71451876 L11.6531811,4.21566069 Z" id="Grey"></path>
                    </g>
                </g>
            </g>
        </g>
    </g>
</svg>