<svg xmlns="http://www.w3.org/2000/svg" width="80" height="46" viewBox="0 0 80 46">
  <g fill="none" fill-rule="evenodd" transform="translate(0 1.5)">
    <rect width="79" height="45.964" x="1" fill="#FF6EF2" opacity="0"/>
    <path fill="#C8C7CC" fill-rule="nonzero" d="M17.3985232,23.1748922 C16.6601586,23.1748922 16.2257306,22.7700482 16.2257306,22.2747951 C16.2257306,21.779542 16.6543079,21.374698 17.3985232,21.374698 L30.671504,21.374698 C31.4098686,21.374698 31.8595027,21.7756177 31.8595027,22.2747951 C31.8595027,22.7700482 31.4157192,23.1748922 30.671504,23.1748922 L17.3985232,23.1748922 Z M34.7572342,27.9455416 C34.7572342,28.4436405 34.3281332,28.8476016 33.5897686,28.8476016 L7.36163766,28.8476016 C7.27291056,28.1218507 7.25089463,27.6676425 7.20561893,27.0474074 L33.5897686,27.0474074 C34.3281332,27.0474074 34.7572342,27.4474528 34.7572342,27.9455416 Z M31.2457659,32.7201169 C31.9899811,32.7201169 32.3965699,33.1201622 32.3907103,33.6182511 C32.3907103,34.1163499 31.9899811,34.520311 31.2457659,34.520311 L18.8986849,34.520311 C18.1603203,34.520311 17.7425131,34.1163399 17.7425131,33.6182511 C17.7425131,33.1201622 18.1544697,32.7201169 18.8986849,32.7201169 L31.2457659,32.7201169 Z"/>
    <path fill="#ff9b89" d="M62.5941927,16.8354185 C63.0710934,17.3754723 63.922618,19.5332805 64.9384952,21.7875221 C65.1103595,22.0230969 65.2039304,22.8731019 65.2039304,23.1586161 C65.2039304,23.942214 63.9383773,24.9273003 63.1459521,24.9130142 L35.5256859,24.9130142 C35.0047077,24.9130142 34.2142097,24.7330696 33.9192537,24.3399565 C33.6249953,23.9476907 33.409165,23.1194296 33.6006071,22.6742029 L35.1237763,18.3258765 L31.9340543,1.93100496 C31.8337121,1.48834104 31.9676972,1.02669385 32.2958913,0.685299748 C32.62263,0.349006431 33.0959279,0.17381484 33.6006071,0.202502394 L53.1575916,1.67747732 C53.8471963,1.72814384 54.4206055,2.18167549 54.5727526,2.7977446 L57.1987081,13.8872456 C61.2135914,14.8313907 62.0366207,16.2047516 62.5941927,16.8354185 Z"/>
    <path fill="#2A2B2C" fill-rule="nonzero" d="M71.8563823,42.8009987 C68.3587055,42.8009987 65.5133982,39.9556863 65.5133982,36.4580147 C65.5133982,32.9603654 68.3587331,30.1150306 71.8563823,30.1150306 C75.3535315,30.1150306 78.1973694,32.9598652 78.1973693,36.4577398 C78.199471,39.9551363 75.354499,42.8009987 71.8563823,42.8009987 Z M71.8563823,32.8061299 C69.8428748,32.8061299 68.2047471,34.4442576 68.2047471,36.457765 C68.2047471,38.4712725 69.8428748,40.1094002 71.8563823,40.1094002 C73.8688333,40.1094002 75.5080174,38.4703822 75.5080174,36.457765 C75.5080174,34.4442576 73.8698898,32.8061299 71.8563823,32.8061299 Z M47.3195284,42.8009987 C43.8218517,42.8009987 40.9765444,39.9556863 40.9765444,36.4580147 C40.9765444,32.9603654 43.8218792,30.1150306 47.3195284,30.1150306 C50.8166777,30.1150306 53.6605155,32.9598652 53.6605155,36.4577397 C53.6626177,39.9551361 50.8176454,42.8009987 47.3195284,42.8009987 Z M47.3195284,32.8061299 C45.306021,32.8061299 43.6678933,34.4442576 43.6678933,36.457765 C43.6678933,38.4712725 45.306021,40.1094002 47.3195284,40.1094002 C49.3330359,40.1094002 50.9711636,38.4712725 50.9711636,36.457765 C50.9711636,34.4442576 49.3330359,32.8061299 47.3195284,32.8061299 Z M67.3564871,13.3826182 C68.1710523,12.1614741 69.3846926,11.4086168 70.6246144,11.1864012 C71.0136122,11.1115937 71.4240478,11.2202683 71.7335368,11.479207 C72.0374708,11.7359275 72.2136641,12.1134585 72.2136641,12.5092525 L72.1618115,15.7608914 L72.8153877,16.4319136 C73.0264916,16.6488797 73.1576016,16.9309584 73.190354,17.2377318 L73.9536753,25.6630549 L76.247608,26.9225006 C77.4957705,27.4148526 78.6016733,28.0426353 79.3946956,28.6614633 C79.9443656,29.0929244 80.0716437,29.875185 79.6876954,30.4599424 C79.3031397,31.045655 78.5343287,31.2370725 77.9174525,30.9006231 L75.238464,29.4296954 C73.2517638,28.6530281 71.3839656,28.5512346 69.6968735,29.1806235 C67.4179171,30.0315142 65.901863,31.454479 65.413432,32.8682788 C65.220667,33.4020855 64.7122131,33.7631733 64.1499761,33.7631708 L54.9171814,33.7914331 C54.3528686,33.8286726 53.8493012,33.4872224 53.6338979,32.944151 C53.4019908,32.3679182 52.9058839,31.6534994 52.238498,31.0143513 C50.9615804,29.7914612 49.3074882,29.1164439 47.2753266,29.0532326 C45.2777129,28.9849042 43.6495031,29.696908 42.3818423,31.1166287 C41.9693022,31.5786544 41.6167755,32.0942094 41.3307837,32.6426141 C41.1854344,32.9213291 41.0657874,33.1936236 41.0173458,33.3412965 C40.8324408,33.8873429 40.3195348,34.2538589 39.7455742,34.2545744 C39.6018794,34.2549935 39.4573403,34.2312481 39.316921,34.1844406 C38.6111199,33.9471978 38.2322777,33.1809165 38.4734037,32.4725296 C38.566055,32.211431 38.7162379,31.8748386 38.9190865,31.4884004 C39.3064213,30.7505056 39.7797476,30.0527686 40.3324948,29.4195087 C42.1504654,27.3367338 44.514404,26.2704151 47.362889,26.3626075 C51.1985414,26.4818254 54.0364359,28.2087327 55.7073064,31.0985301 L63.3040357,31.0748589 C64.3980468,29.1403822 66.2341983,27.6014972 68.7571037,26.6605943 C69.600911,26.344569 70.473933,26.1574101 71.3736907,26.0965193 L70.6075193,18.0170667 L69.9085781,17.2985931 C69.6635649,17.0476779 69.5268622,16.7107962 69.5268622,16.3588771 L69.5268622,14.9836649 C69.3254835,15.3053341 69.1939043,15.6093706 69.1290865,15.8896092 C69.0967394,16.0294613 69.0824449,16.1536105 69.0821441,16.1832106 C69.2295327,17.2400373 69.3366518,18.4213282 69.3820961,19.6072687 C69.4644347,21.7560258 69.314331,23.3960737 68.9068313,24.4822503 C68.0118059,26.8632641 64.8765561,28.5280797 61.501038,28.6591844 C59.9718048,28.7186107 58.104156,28.7121539 56.8079403,28.6592357 C56.0664483,28.6326485 55.4864204,28.0076588 55.5130728,27.2652388 C55.5398706,26.5178725 56.1853897,25.9230389 56.9286619,25.9716574 C57.4461012,26.0147745 59.9914212,26.0255302 61.3951852,25.9704299 C63.6326575,25.8825641 65.9234233,24.7660569 66.3847827,23.536348 C66.7624558,22.5310433 66.8075541,20.2873294 66.5417512,17.6200665 L61.0097796,16.9020393 C60.2733256,16.8048243 59.7548913,16.1321609 59.8492805,15.3977003 C59.9414997,14.6539765 60.6172797,14.131667 61.3566885,14.2339583 L66.6076297,14.9157636 C66.7682252,14.4037914 67.0169646,13.8919279 67.3564871,13.3826182 Z M60.1997103,18.7299003 C60.606531,19.2340509 61.2787417,20.6433419 62.1453369,22.7477198 C62.291946,22.9676334 62.3703718,23.2263445 62.3703718,23.4928775 C62.3703718,24.2243813 61.7790383,24.8398106 61.1030591,24.8264743 L38.7564141,24.8376933 C38.3119931,24.8376933 37.8955238,24.6178066 37.6439112,24.250828 C37.3928938,23.8846403 37.3407113,23.4151354 37.5040211,22.9995077 L38.641011,20.1976065 L35.4593459,4.73328758 C35.3737489,4.32005228 35.488045,3.88909574 35.7680114,3.57039776 C36.0467362,3.25646148 36.4504835,3.09291675 36.8810007,3.11969713 L51.1748068,4.23917738 C51.7630749,4.28647555 52.2522222,4.70985608 52.3820115,5.28496846 L54.9629969,16.7460455 C58.3878977,17.6274231 59.7240728,18.1411606 60.1997103,18.7299003 Z M58.9647655,22.1482415 C58.6930433,21.5384517 58.4823111,21.0777116 58.2862675,20.5961851 C57.8486679,20.350934 55.6646439,19.6910486 53.5097831,19.1533868 C53.0165431,19.0322884 52.633927,18.6406056 52.5212647,18.1427586 L49.9763278,6.84502568 L38.4572849,5.94370591 L41.3477052,19.995426 C41.4009884,20.2529603 41.3773868,20.5201482 41.2804242,20.7610374 L40.7331631,22.1482415 L58.9647655,22.1482415 Z M54.4901787,36.4598619 C54.4901787,35.716659 55.0919425,35.1151609 55.8347833,35.1151609 L63.2602717,35.1132109 C64.0034849,35.1132109 64.6049727,35.7149849 64.6049727,36.4579118 C64.6049727,37.2014672 64.0028548,37.8045598 63.2602718,37.8045598 L55.8348797,37.8045628 C55.0927824,37.8045628 54.4901787,37.2019562 54.4901787,36.4598619 Z"/>
    <path fill="#FFF" d="M7.21344031,27.0500031 L1.49619868,27.0500031 C0.751983457,27.0500031 0.340026855,27.4500484 0.340026855,27.9481372 C0.340026855,28.4462261 0.757834088,28.8501972 1.49619868,28.8501972 C5.40835,28.8501972 7.36442566,28.8501972 7.36442566,28.8501972 C7.36442566,28.8501972 7.21344031,27.4532034 7.21344031,27.0500031 Z"/>
  </g>
</svg>
