<svg xmlns="http://www.w3.org/2000/svg" width="134" height="151" viewBox="0 0 134 151">
  <g fill="none" fill-rule="evenodd" transform="translate(0 .5)">
    <g transform="translate(15.765 15.757)">
      <path fill="#ff9b89" d="M59.0997751,116.493955 C58.8637658,116.334263 58.5592273,116.334263 58.3169739,116.496456 L54.6389873,118.970765 C51.0292099,121.397121 46.3547001,121.398528 42.7448866,118.970398 L39.0603774,116.491674 C38.8295143,116.334643 38.5226241,116.334643 38.2824566,116.495433 L33.6911263,119.591494 C31.6997296,120.926251 29.1535558,121.04919 27.0589145,119.909593 C24.9546509,118.773419 23.6470588,116.570984 23.6470588,114.162179 L23.6470588,17.1357336 C23.6470588,14.7288583 24.9569537,12.5219752 27.0589145,11.3841122 C29.1622689,10.2484295 31.7071536,10.372886 33.6950059,11.7090371 L38.2796104,14.8005751 C38.5199762,14.9619429 38.8272302,14.9622957 39.0663563,14.8022013 L42.7463087,12.3223618 C46.3578386,9.89814317 51.0316409,9.89814317 54.6398966,12.323562 L58.3231737,14.802837 C58.5583633,14.9615595 58.863766,14.9619107 59.1022848,14.8022013 L62.7822372,12.3223618 C66.393621,9.89824127 71.0627823,9.89824127 74.6758251,12.323562 L78.3523917,14.7983319 C78.5973575,14.9619305 78.9046614,14.9622834 79.1435774,14.8014676 L82.8224401,12.3265696 C86.43397,9.90235092 91.1077723,9.90235092 94.716028,12.3277697 L98.3925946,14.8025397 C98.6375604,14.9661383 98.9448642,14.9664912 99.183135,14.8061097 L103.772703,11.7154413 C105.754196,10.3854779 108.292071,10.2580691 110.403489,11.3893215 C112.496154,12.5226544 113.80099,14.7299094 113.80099,17.1357336 L113.80099,114.162179 C113.80099,116.570203 112.494386,118.775742 110.389134,119.918008 C108.285823,121.053667 105.745104,120.929262 103.758374,119.593867 L99.1625887,116.500414 C98.9260609,116.341206 98.6160771,116.341917 98.3771623,116.500163 L94.7030557,118.974667 C91.0910676,121.404174 86.4204835,121.404174 82.8092417,118.975083 L79.1198388,116.495871 C78.8935738,116.341968 78.5788778,116.342688 78.3411269,116.500163 L74.6674719,118.974363 C72.8865711,120.173082 70.8240738,120.800005 68.7158063,120.8 C66.6197533,120.794934 64.551408,120.165078 62.7799097,118.969717 L59.0997751,116.493955 Z"/>
      <path fill="#DF3019" fill-rule="nonzero" d="M35.8137704,105.989607 C35.5753575,105.829915 35.2677176,105.829915 35.022997,105.992108 L31.3075534,108.466417 C27.6610137,110.892774 22.9388982,110.89418 19.292322,108.46605 L15.5702893,105.987326 C15.3370751,105.830296 15.0270595,105.830296 14.7844461,105.991085 L10.1463573,109.087147 C8.13467996,110.421903 5.56257568,110.544843 3.44660236,109.405245 C1.32090873,108.269071 0,106.066636 0,103.657831 L0,6.63138576 C0,4.22451046 1.32323494,2.01762734 3.44660236,0.879764359 C5.57137755,-0.25591834 8.14217963,-0.131461776 10.1502764,1.20468931 L14.781571,4.29622726 C15.0243846,4.45759505 15.3347678,4.45794791 15.5763292,4.29785344 L19.2937586,1.818014 C22.9420687,-0.606204658 27.6634694,-0.606204658 31.308472,1.81921417 L35.02926,4.2984892 C35.2668448,4.4572117 35.5753577,4.45756285 35.8163056,4.29785344 L39.533735,1.818014 C43.1818975,-0.606106561 47.8986101,-0.606106561 51.5484485,1.81921417 L55.2624576,4.29398407 C55.5099181,4.45758269 55.8203516,4.4579356 56.0617007,4.29711977 L59.7780294,1.82222175 C63.4263395,-0.601996906 68.1477402,-0.601996906 71.7927428,1.82342192 L75.5067519,4.29819182 C75.7542125,4.46179044 76.0646459,4.46214335 76.3053432,4.30176184 L80.9416514,1.21109345 C82.9433247,-0.118869903 85.507046,-0.246278687 87.6399665,0.884973716 C89.7539437,2.01830659 91.0720679,4.22556161 91.0720679,6.63138576 L91.0720679,103.657831 C91.0720679,106.065855 89.7521579,108.271394 87.6254655,109.41366 C85.5007344,110.549319 82.93414,110.424914 80.9271773,109.08952 L76.2845877,105.996067 C76.0456511,105.836858 75.7325104,105.837569 75.4911625,105.995815 L71.7796384,108.470319 C68.1308654,110.899826 63.4127157,110.899826 59.7646966,108.470736 L56.0377204,105.991523 C55.8091511,105.83762 55.4912502,105.83834 55.2510781,105.995815 L51.5400101,108.470015 C49.7409725,109.668734 47.6574705,110.295657 45.5277322,110.295652 C43.4103328,110.290586 41.3209233,109.66073 39.5313838,108.465369 L35.8137704,105.989607 Z M45.1433969,100.050678 C45.3864476,100.212628 45.6898303,100.212628 45.9339722,100.049951 L49.6537772,97.5755416 C53.3044192,95.1497735 58.0265276,95.1483673 61.66739,97.576009 L65.3875833,100.050678 C65.6285716,100.211253 65.9346872,100.210905 66.1781586,100.049951 L69.8979636,97.5755416 C73.2389147,95.355556 77.4772539,95.1660527 80.9644396,97.0116068 L80.9644396,13.2718078 C77.4724151,15.116156 73.2331924,14.9285442 69.89616,12.7080516 L66.1821508,10.2332817 C65.9346903,10.0696831 65.6242568,10.0693301 65.3829077,10.230146 L61.666579,12.705044 C58.0182689,15.1292626 53.2968682,15.1292626 49.6518656,12.7038438 L45.9310776,10.2245688 C45.6955583,10.0672261 45.3842994,10.0672261 45.144032,10.2252045 L41.4266026,12.705044 C37.7782925,15.1292626 33.0568918,15.1292626 29.4118892,12.7038438 L25.6911012,10.2245688 C25.4555818,10.0672261 25.1443229,10.0672261 24.9066247,10.2234873 L21.195046,12.7092517 C17.8560077,14.9279664 13.6181017,15.1160496 10.12857,13.2721593 L10.12857,97.0120053 C13.6210338,95.1642032 17.8607518,95.352311 21.195749,97.576009 L24.9159423,100.050678 C25.158993,100.212628 25.4623757,100.212628 25.7065176,100.049951 L29.422768,97.5779101 C31.2145436,96.3807642 33.3017537,95.7552953 35.4285676,95.7552953 C37.5492158,95.7552953 39.6398207,96.3818645 41.4254275,97.5774883 L45.1433969,100.050678 Z M65.7803658,38.6194126 L25.300197,38.6194126 C22.5048579,38.6194126 20.2401759,36.3559063 20.2401759,33.5620184 C20.2401759,30.7681305 22.5048579,28.5046241 25.300197,28.5046241 L65.7803658,28.5046241 C68.5757049,28.5046241 70.8403869,30.7681305 70.8403869,33.5620184 C70.8403869,36.3559063 68.5757049,38.6194126 65.7803658,38.6194126 Z M65.7803823,54.1287497 L25.3002135,54.1287497 C22.5048744,54.1287497 20.2401924,51.8652434 20.2401924,49.0713555 C20.2401924,46.2774676 22.5048744,44.0139613 25.3002135,44.0139613 L65.7803823,44.0139613 C68.5757214,44.0139613 70.8404034,46.2774676 70.8404034,49.0713555 C70.8404034,51.8652434 68.5757214,54.1287497 65.7803823,54.1287497 Z M65.7803823,69.6381126 L25.3002135,69.6381126 C22.5048744,69.6381126 20.2401924,67.3746063 20.2401924,64.5807184 C20.2401924,61.7868305 22.5048744,59.5233241 25.3002135,59.5233241 L65.7803823,59.5233241 C68.5757214,59.5233241 70.8404034,61.7868305 70.8404034,64.5807184 C70.8404034,67.3746063 68.5757214,69.6381126 65.7803823,69.6381126 Z M65.7803823,84.4731151 L51.320866,84.4731151 C48.5255269,84.4731151 46.2608449,82.2096087 46.2608449,79.4157208 C46.2608449,76.6218329 48.5255269,74.3583266 51.320866,74.3583266 L65.7803823,74.3583266 C68.5757214,74.3583266 70.8404034,76.6218329 70.8404034,79.4157208 C70.8404034,82.2096087 68.5757214,84.4731151 65.7803823,84.4731151 Z"/>
    </g>
    <g transform="rotate(40 52.54 146.474)">
      <rect width="11.824" height="165.443" x="11.824" fill="#DF3019"/>
      <rect width="11.824" height="165.443" x="23.647" fill="#FFF"/>
      <rect width="11.824" height="165.443" fill="#FFF"/>
    </g>
  </g>
</svg>
